<svg width="18" height="18" viewBox="0 0 18 18" fill="none" xmlns="http://www.w3.org/2000/svg">
<path d="M13.2641 6.14477L16.0965 4.5328C15.9834 4.41966 15.8477 4.32934 15.6822 4.2387L10.3712 1.21084C9.90418 0.946946 9.45193 0.803589 9 0.803589C8.54807 0.803589 8.09614 0.946625 7.62878 1.21052L6.09975 2.07645L13.2641 6.14477ZM9 8.5632L12.2169 6.74005L5.08275 2.66434L2.31782 4.23902C2.15196 4.32902 2.01664 4.41966 1.90318 4.5328L9 8.5632ZM9.51236 17.1964C9.56507 17.1813 9.61007 17.1588 9.66311 17.1289L15.5616 13.7687C16.2624 13.3695 16.6465 12.9626 16.6465 11.8704V6.00173C16.6465 5.77577 16.624 5.5948 16.5864 5.42927L9.51236 9.46705V17.1964ZM8.48764 17.1964V9.46705L1.41428 5.42927C1.37225 5.61703 1.35198 5.80901 1.35386 6.00141V11.8704C1.35386 12.9626 1.73796 13.3695 2.43868 13.7687L8.33753 17.1286C8.39025 17.1588 8.43493 17.1813 8.48764 17.1964Z" fill="black"/>
</svg>
