<svg width="18" height="18" viewBox="0 0 18 18" fill="none" xmlns="http://www.w3.org/2000/svg">
<path d="M2.55169 3.26825C2.62577 3.08315 2.78874 2.97694 2.95418 3.00425L8.99895 3.93279L15.0437 3.00425C15.2092 2.97997 15.3721 3.08618 15.4462 3.26825L16.4759 5.79899C16.6981 6.34215 16.4611 7.00063 15.987 7.16753L11.9522 8.58462C11.609 8.706 11.241 8.52696 11.0583 8.15069L8.99895 3.93279L6.93958 8.15069C6.75685 8.52696 6.38893 8.706 6.0457 8.58462L2.01339 7.16753C1.53682 7.00063 1.30224 6.34215 1.52448 5.79899L2.55169 3.26825ZM9.02611 5.87485L10.3817 8.64834C10.7497 9.40089 11.483 9.75895 12.172 9.5162L15.3203 8.41165V13.4792C15.3203 14.1468 14.9499 14.7294 14.4215 14.8933L9.38168 16.4408C9.12982 16.5197 8.86561 16.5197 8.61621 16.4408L3.57644 14.8933C3.04801 14.7264 2.67762 14.1437 2.67762 13.4762V8.40862L5.82841 9.5162C6.51486 9.75895 7.25071 9.40089 7.61863 8.64834L8.97179 5.87485H9.02611Z" fill="black"/>
</svg>
