<svg width="18" height="19" viewBox="0 0 18 19" fill="none" xmlns="http://www.w3.org/2000/svg">
<path d="M3.29453 6.2432C3.27721 6.28866 3.2712 6.33765 3.27703 6.38594C3.28286 6.43423 3.30034 6.48039 3.32798 6.52042C3.35561 6.56046 3.39257 6.59317 3.43566 6.61574C3.47875 6.63832 3.52668 6.65007 3.57533 6.65H8.24933C8.32889 6.65 8.4052 6.61839 8.46146 6.56213C8.51772 6.50587 8.54933 6.42956 8.54933 6.35V3.8C8.54933 3.72044 8.51772 3.64413 8.46146 3.58787C8.4052 3.53161 8.32889 3.5 8.24933 3.5H5.89073C5.43467 3.50009 4.98941 3.63876 4.61395 3.89763C4.23849 4.15651 3.95056 4.52338 3.78833 4.9496L3.29453 6.2432ZM8.18993 10.454C8.18993 10.3437 8.23373 10.238 8.31171 10.16C8.38969 10.082 8.49545 10.0382 8.60573 10.0382C8.716 10.0382 8.82176 10.082 8.89974 10.16C8.97772 10.238 9.02153 10.3437 9.02153 10.454V11.696C9.02153 11.8063 8.97772 11.912 8.89974 11.99C8.82176 12.068 8.716 12.1118 8.60573 12.1118C8.49545 12.1118 8.38969 12.068 8.31171 11.99C8.23373 11.912 8.18993 11.8063 8.18993 11.696V10.454ZM11.8343 10.0382C11.7548 10.0382 11.6785 10.0698 11.6222 10.1261C11.5659 10.1823 11.5343 10.2586 11.5343 10.3382V11.8118C11.5343 11.8512 11.5421 11.8902 11.5572 11.9266C11.5722 11.963 11.5943 11.9961 11.6222 12.0239C11.6501 12.0518 11.6831 12.0739 11.7195 12.089C11.7559 12.104 11.7949 12.1118 11.8343 12.1118H12.0659C12.1455 12.1118 12.2218 12.0802 12.2781 12.0239C12.3343 11.9677 12.3659 11.8914 12.3659 11.8118V10.3382C12.3659 10.2586 12.3343 10.1823 12.2781 10.1261C12.2218 10.0698 12.1455 10.0382 12.0659 10.0382H11.8343Z" fill="black"/>
<path fill-rule="evenodd" clip-rule="evenodd" d="M3.3 7.55002C3.22044 7.55002 3.14413 7.58163 3.08787 7.63789C3.03161 7.69415 3 7.77045 3 7.85002V13.25C3 13.8468 3.23705 14.4191 3.65901 14.841C4.08097 15.263 4.65326 15.5 5.25 15.5H12.75C13.3467 15.5 13.919 15.263 14.341 14.841C14.7629 14.4191 15 13.8468 15 13.25V7.85002C15 7.77045 14.9684 7.69415 14.9121 7.63789C14.8559 7.58163 14.7796 7.55002 14.7 7.55002H3.3ZM4.734 10.3082C4.734 9.99792 4.85727 9.70032 5.07668 9.4809C5.2961 9.26149 5.5937 9.13822 5.904 9.13822H6.2988C6.41815 9.13822 6.53261 9.18563 6.617 9.27002C6.70139 9.35441 6.7488 9.46887 6.7488 9.58822C6.7488 9.70757 6.70139 9.82202 6.617 9.90642C6.53261 9.99081 6.41815 10.0382 6.2988 10.0382H5.904C5.86854 10.0382 5.83343 10.0452 5.80068 10.0588C5.76792 10.0723 5.73815 10.0922 5.71308 10.1173C5.68801 10.1424 5.66812 10.1721 5.65455 10.2049C5.64098 10.2377 5.634 10.2728 5.634 10.3082V11.8418C5.634 11.9912 5.7546 12.1118 5.904 12.1118H6.2988C6.41815 12.1118 6.53261 12.1592 6.617 12.2436C6.70139 12.328 6.7488 12.4425 6.7488 12.5618C6.7488 12.6812 6.70139 12.7956 6.617 12.88C6.53261 12.9644 6.41815 13.0118 6.2988 13.0118H5.904C5.75035 13.0118 5.59821 12.9816 5.45626 12.9228C5.31431 12.864 5.18533 12.7778 5.07668 12.6691C4.85727 12.4497 4.734 12.1521 4.734 11.8418V10.3082ZM8.6058 9.13822C8.25683 9.13822 7.92215 9.27685 7.67539 9.52361C7.42863 9.77037 7.29 10.105 7.29 10.454V11.696C7.29 12.045 7.42863 12.3797 7.67539 12.6264C7.92215 12.8732 8.25683 13.0118 8.6058 13.0118C8.95477 13.0118 9.28945 12.8732 9.53621 12.6264C9.78297 12.3797 9.9216 12.045 9.9216 11.696V10.454C9.9216 10.105 9.78297 9.77037 9.53621 9.52361C9.28945 9.27685 8.95477 9.13822 8.6058 9.13822ZM10.6344 9.58822C10.6344 9.46887 10.6818 9.35441 10.7662 9.27002C10.8506 9.18563 10.9651 9.13822 11.0844 9.13822H12.066C12.3843 9.13822 12.6895 9.26465 12.9145 9.48969C13.1396 9.71473 13.266 10.02 13.266 10.3382V11.8118C13.266 12.1301 13.1396 12.4353 12.9145 12.6603C12.6895 12.8854 12.3843 13.0118 12.066 13.0118H11.0844C10.9651 13.0118 10.8506 12.9644 10.7662 12.88C10.6818 12.7956 10.6344 12.6812 10.6344 12.5618V9.58822Z" fill="black"/>
<path d="M14.4244 6.65C14.473 6.64998 14.5208 6.63815 14.5639 6.61553C14.6069 6.59292 14.6437 6.5602 14.6713 6.52018C14.6989 6.48016 14.7163 6.43404 14.7221 6.38579C14.7279 6.33754 14.7219 6.28861 14.7046 6.2432L14.212 4.9496C14.0497 4.52328 13.7617 4.15635 13.3861 3.89746C13.0105 3.63858 12.5651 3.49996 12.109 3.5H9.74979C9.67023 3.5 9.59392 3.53161 9.53766 3.58787C9.4814 3.64413 9.44979 3.72044 9.44979 3.8V6.35C9.44979 6.42957 9.4814 6.50587 9.53766 6.56213C9.59392 6.61839 9.67023 6.65 9.74979 6.65H14.4244Z" fill="black"/>
</svg>
