<svg width="18" height="19" viewBox="0 0 18 19" fill="none" xmlns="http://www.w3.org/2000/svg">
<path d="M9.546 2.162C9.59992 2.10957 9.66381 2.06848 9.73389 2.04117C9.80397 2.01386 9.87882 2.00088 9.954 2.003C11.6729 2.05495 13.3071 2.76098 14.5231 3.97695C15.739 5.19292 16.445 6.82714 16.497 8.546C16.4992 8.62125 16.4863 8.69617 16.459 8.76633C16.4317 8.83649 16.3906 8.90046 16.3382 8.95446C16.2857 9.00845 16.223 9.05137 16.1536 9.08066C16.0843 9.10995 16.0098 9.12503 15.9345 9.125H9.9375C9.78831 9.125 9.64524 9.06574 9.53975 8.96025C9.43426 8.85476 9.375 8.71168 9.375 8.5625V2.5655C9.37505 2.49022 9.39021 2.41572 9.41959 2.34641C9.44896 2.2771 9.49195 2.21439 9.546 2.162ZM8.25 4.088C8.25 4.0099 8.23373 3.93265 8.20224 3.86117C8.17074 3.7897 8.12471 3.72557 8.06706 3.67287C8.00942 3.62016 7.94144 3.58004 7.86743 3.55506C7.79343 3.53007 7.71504 3.52077 7.63725 3.52775C6.35975 3.64423 5.14189 4.12232 4.12632 4.90602C3.11076 5.68973 2.33953 6.7466 1.903 7.95283C1.46646 9.15907 1.38268 10.4647 1.66147 11.7169C1.94026 12.969 2.57008 14.1158 3.47716 15.0228C4.38424 15.9299 5.531 16.5597 6.78314 16.8385C8.03528 17.1173 9.34093 17.0335 10.5472 16.597C11.7534 16.1605 12.8103 15.3892 13.594 14.3737C14.3777 13.3581 14.8558 12.1403 14.9722 10.8628C14.9792 10.785 14.9699 10.7066 14.9449 10.6326C14.92 10.5586 14.8798 10.4906 14.8271 10.4329C14.7744 10.3753 14.7103 10.3293 14.6388 10.2978C14.5674 10.2663 14.4901 10.25 14.412 10.25H8.25V4.088Z" fill="black"/>
</svg>
