<svg width="18" height="19" viewBox="0 0 18 19" fill="none" xmlns="http://www.w3.org/2000/svg">
<path d="M7.173 7.0475L7.55925 8.44475C7.923 9.761 8.1045 10.4195 8.63925 10.7187C9.174 11.0187 9.85275 10.8417 11.2102 10.4892L12.6503 10.1142C14.0078 9.76175 14.6865 9.5855 14.9955 9.06725C15.3045 8.54825 15.123 7.88975 14.7585 6.5735L14.373 5.177C14.0092 3.86 13.827 3.2015 13.293 2.90225C12.7575 2.60225 12.0788 2.77925 10.7213 3.1325L9.28125 3.506C7.92375 3.8585 7.245 4.0355 6.93675 4.5545C6.62775 5.07275 6.80925 5.73125 7.173 7.0475Z" fill="black"/>
<path d="M1.70775 4.43524C1.72751 4.36401 1.76112 4.29737 1.80665 4.23913C1.85218 4.1809 1.90874 4.13221 1.9731 4.09585C2.03746 4.05949 2.10836 4.03617 2.18174 4.02723C2.25512 4.01829 2.32954 4.0239 2.40075 4.04374L3.678 4.39774C4.01641 4.48987 4.32521 4.66801 4.57439 4.91482C4.82357 5.16164 5.00464 5.46873 5.1 5.80624L6.71325 11.6457L6.83175 12.056C7.31007 12.2323 7.71314 12.5678 7.97325 13.0062L8.20575 12.9342L14.8583 11.2055C14.9298 11.1869 15.0042 11.1825 15.0774 11.1927C15.1506 11.2029 15.2211 11.2273 15.2848 11.2647C15.3485 11.3021 15.4042 11.3517 15.4488 11.4107C15.4934 11.4696 15.5259 11.5367 15.5445 11.6082C15.5631 11.6797 15.5675 11.7542 15.5573 11.8274C15.5471 11.9006 15.5227 11.9711 15.4853 12.0348C15.4479 12.0985 15.3983 12.1542 15.3393 12.1988C15.2804 12.2434 15.2133 12.2759 15.1418 12.2945L8.514 14.0165L8.2665 14.093C8.262 15.0455 7.60425 15.917 6.609 16.175C5.4165 16.4855 4.19025 15.7985 3.87075 14.642C3.55125 13.4855 4.25925 12.2952 5.45175 11.9855C5.51125 11.9705 5.5705 11.9575 5.6295 11.9465L4.0155 6.10549C3.97185 5.95553 3.89024 5.81937 3.77856 5.71018C3.66688 5.601 3.52891 5.52249 3.378 5.48224L2.1 5.12749C2.02878 5.1078 1.96214 5.07428 1.90388 5.02884C1.84562 4.98339 1.79689 4.92691 1.76046 4.86263C1.72404 4.79834 1.70063 4.72751 1.69159 4.65418C1.68254 4.58084 1.68804 4.50645 1.70775 4.43524Z" fill="black"/>
</svg>
