<svg width="18" height="18" viewBox="0 0 18 18" fill="none" xmlns="http://www.w3.org/2000/svg">
<path fill-rule="evenodd" clip-rule="evenodd" d="M9 1.5C9.98492 1.5 10.9602 1.69398 11.8701 2.07089C12.7801 2.4478 13.6069 3.00024 14.3033 3.69668C14.9998 4.39312 15.5522 5.21992 15.9291 6.12986C16.306 7.0398 16.5 8.01507 16.5 8.99999C16.5 13.1421 13.1421 16.5 9 16.5C4.85789 16.5 1.50001 13.1421 1.50001 8.99999C1.50001 4.85788 4.85789 1.5 9 1.5ZM9.75002 9.75001H8.25001C6.39323 9.75001 4.79914 10.8746 4.11159 12.4798C5.19947 14.0053 6.98358 15 9 15C11.0164 15 12.8005 14.0053 13.8884 12.4797C13.2009 10.8746 11.6068 9.75001 9.75002 9.75001ZM9 3.75C7.75737 3.75 6.75 4.75737 6.75 6C6.75 7.24263 7.75737 8.25 9 8.25C10.2426 8.25 11.25 7.24263 11.25 6C11.25 4.75737 10.2427 3.75 9 3.75Z" fill="black"/>
</svg>
